<mxfile host="app.diagrams.net" modified="2021-07-09T18:59:08.128Z" agent="5.0 (Windows NT 10.0; Win64; x64) AppleWebKit/537.36 (KHTML, like Gecko) Chrome/90.0.4430.212 Safari/537.36 OPR/76.0.4017.227" etag="T8REATow6cjoRCvasRXT" version="14.8.5" type="github">
  <diagram id="sDqEN0gbVgFAtb8flwhw" name="Page-1">
    <mxGraphModel dx="827" dy="2049" grid="1" gridSize="10" guides="1" tooltips="1" connect="1" arrows="1" fold="1" page="1" pageScale="1" pageWidth="827" pageHeight="1169" math="0" shadow="0">
      <root>
        <mxCell id="0" />
        <mxCell id="1" parent="0" />
        <mxCell id="typil63lQ0SKJqa8zRIT-1" value="Paciente" style="shape=table;startSize=30;container=1;collapsible=1;childLayout=tableLayout;fixedRows=1;rowLines=0;fontStyle=1;align=center;resizeLast=1;" vertex="1" parent="1">
          <mxGeometry x="860" y="110" width="180" height="270" as="geometry" />
        </mxCell>
        <mxCell id="typil63lQ0SKJqa8zRIT-2" value="" style="shape=partialRectangle;collapsible=0;dropTarget=0;pointerEvents=0;fillColor=none;top=0;left=0;bottom=1;right=0;points=[[0,0.5],[1,0.5]];portConstraint=eastwest;" vertex="1" parent="typil63lQ0SKJqa8zRIT-1">
          <mxGeometry y="30" width="180" height="30" as="geometry" />
        </mxCell>
        <mxCell id="typil63lQ0SKJqa8zRIT-3" value="PK" style="shape=partialRectangle;connectable=0;fillColor=none;top=0;left=0;bottom=0;right=0;fontStyle=1;overflow=hidden;" vertex="1" parent="typil63lQ0SKJqa8zRIT-2">
          <mxGeometry width="30" height="30" as="geometry" />
        </mxCell>
        <mxCell id="typil63lQ0SKJqa8zRIT-4" value="Id_Paciente" style="shape=partialRectangle;connectable=0;fillColor=none;top=0;left=0;bottom=0;right=0;align=left;spacingLeft=6;fontStyle=5;overflow=hidden;" vertex="1" parent="typil63lQ0SKJqa8zRIT-2">
          <mxGeometry x="30" width="150" height="30" as="geometry" />
        </mxCell>
        <mxCell id="typil63lQ0SKJqa8zRIT-5" value="" style="shape=partialRectangle;collapsible=0;dropTarget=0;pointerEvents=0;fillColor=none;top=0;left=0;bottom=0;right=0;points=[[0,0.5],[1,0.5]];portConstraint=eastwest;" vertex="1" parent="typil63lQ0SKJqa8zRIT-1">
          <mxGeometry y="60" width="180" height="30" as="geometry" />
        </mxCell>
        <mxCell id="typil63lQ0SKJqa8zRIT-6" value="" style="shape=partialRectangle;connectable=0;fillColor=none;top=0;left=0;bottom=0;right=0;editable=1;overflow=hidden;" vertex="1" parent="typil63lQ0SKJqa8zRIT-5">
          <mxGeometry width="30" height="30" as="geometry" />
        </mxCell>
        <mxCell id="typil63lQ0SKJqa8zRIT-7" value="Pri_nombre" style="shape=partialRectangle;connectable=0;fillColor=none;top=0;left=0;bottom=0;right=0;align=left;spacingLeft=6;overflow=hidden;" vertex="1" parent="typil63lQ0SKJqa8zRIT-5">
          <mxGeometry x="30" width="150" height="30" as="geometry" />
        </mxCell>
        <mxCell id="typil63lQ0SKJqa8zRIT-8" value="" style="shape=partialRectangle;collapsible=0;dropTarget=0;pointerEvents=0;fillColor=none;top=0;left=0;bottom=0;right=0;points=[[0,0.5],[1,0.5]];portConstraint=eastwest;" vertex="1" parent="typil63lQ0SKJqa8zRIT-1">
          <mxGeometry y="90" width="180" height="30" as="geometry" />
        </mxCell>
        <mxCell id="typil63lQ0SKJqa8zRIT-9" value="" style="shape=partialRectangle;connectable=0;fillColor=none;top=0;left=0;bottom=0;right=0;editable=1;overflow=hidden;" vertex="1" parent="typil63lQ0SKJqa8zRIT-8">
          <mxGeometry width="30" height="30" as="geometry" />
        </mxCell>
        <mxCell id="typil63lQ0SKJqa8zRIT-10" value="Seg_nombre" style="shape=partialRectangle;connectable=0;fillColor=none;top=0;left=0;bottom=0;right=0;align=left;spacingLeft=6;overflow=hidden;" vertex="1" parent="typil63lQ0SKJqa8zRIT-8">
          <mxGeometry x="30" width="150" height="30" as="geometry" />
        </mxCell>
        <mxCell id="typil63lQ0SKJqa8zRIT-11" value="" style="shape=partialRectangle;collapsible=0;dropTarget=0;pointerEvents=0;fillColor=none;top=0;left=0;bottom=0;right=0;points=[[0,0.5],[1,0.5]];portConstraint=eastwest;" vertex="1" parent="typil63lQ0SKJqa8zRIT-1">
          <mxGeometry y="120" width="180" height="30" as="geometry" />
        </mxCell>
        <mxCell id="typil63lQ0SKJqa8zRIT-12" value="" style="shape=partialRectangle;connectable=0;fillColor=none;top=0;left=0;bottom=0;right=0;editable=1;overflow=hidden;" vertex="1" parent="typil63lQ0SKJqa8zRIT-11">
          <mxGeometry width="30" height="30" as="geometry" />
        </mxCell>
        <mxCell id="typil63lQ0SKJqa8zRIT-13" value="Pri_apellido" style="shape=partialRectangle;connectable=0;fillColor=none;top=0;left=0;bottom=0;right=0;align=left;spacingLeft=6;overflow=hidden;" vertex="1" parent="typil63lQ0SKJqa8zRIT-11">
          <mxGeometry x="30" width="150" height="30" as="geometry" />
        </mxCell>
        <mxCell id="typil63lQ0SKJqa8zRIT-14" value="Expediente" style="shape=table;startSize=30;container=1;collapsible=1;childLayout=tableLayout;fixedRows=1;rowLines=0;fontStyle=1;align=center;resizeLast=1;" vertex="1" parent="1">
          <mxGeometry x="1190" y="185" width="180" height="180" as="geometry" />
        </mxCell>
        <mxCell id="typil63lQ0SKJqa8zRIT-15" value="" style="shape=partialRectangle;collapsible=0;dropTarget=0;pointerEvents=0;fillColor=none;top=0;left=0;bottom=1;right=0;points=[[0,0.5],[1,0.5]];portConstraint=eastwest;" vertex="1" parent="typil63lQ0SKJqa8zRIT-14">
          <mxGeometry y="30" width="180" height="30" as="geometry" />
        </mxCell>
        <mxCell id="typil63lQ0SKJqa8zRIT-16" value="PK" style="shape=partialRectangle;connectable=0;fillColor=none;top=0;left=0;bottom=0;right=0;fontStyle=1;overflow=hidden;" vertex="1" parent="typil63lQ0SKJqa8zRIT-15">
          <mxGeometry width="30" height="30" as="geometry" />
        </mxCell>
        <mxCell id="typil63lQ0SKJqa8zRIT-17" value="Id_Expediente" style="shape=partialRectangle;connectable=0;fillColor=none;top=0;left=0;bottom=0;right=0;align=left;spacingLeft=6;fontStyle=5;overflow=hidden;" vertex="1" parent="typil63lQ0SKJqa8zRIT-15">
          <mxGeometry x="30" width="150" height="30" as="geometry" />
        </mxCell>
        <mxCell id="typil63lQ0SKJqa8zRIT-18" value="" style="shape=partialRectangle;collapsible=0;dropTarget=0;pointerEvents=0;fillColor=none;top=0;left=0;bottom=0;right=0;points=[[0,0.5],[1,0.5]];portConstraint=eastwest;" vertex="1" parent="typil63lQ0SKJqa8zRIT-14">
          <mxGeometry y="60" width="180" height="30" as="geometry" />
        </mxCell>
        <mxCell id="typil63lQ0SKJqa8zRIT-19" value="" style="shape=partialRectangle;connectable=0;fillColor=none;top=0;left=0;bottom=0;right=0;editable=1;overflow=hidden;" vertex="1" parent="typil63lQ0SKJqa8zRIT-18">
          <mxGeometry width="30" height="30" as="geometry" />
        </mxCell>
        <mxCell id="typil63lQ0SKJqa8zRIT-20" value="descripción" style="shape=partialRectangle;connectable=0;fillColor=none;top=0;left=0;bottom=0;right=0;align=left;spacingLeft=6;overflow=hidden;" vertex="1" parent="typil63lQ0SKJqa8zRIT-18">
          <mxGeometry x="30" width="150" height="30" as="geometry" />
        </mxCell>
        <mxCell id="typil63lQ0SKJqa8zRIT-21" value="" style="shape=partialRectangle;collapsible=0;dropTarget=0;pointerEvents=0;fillColor=none;top=0;left=0;bottom=0;right=0;points=[[0,0.5],[1,0.5]];portConstraint=eastwest;" vertex="1" parent="typil63lQ0SKJqa8zRIT-14">
          <mxGeometry y="90" width="180" height="30" as="geometry" />
        </mxCell>
        <mxCell id="typil63lQ0SKJqa8zRIT-22" value="" style="shape=partialRectangle;connectable=0;fillColor=none;top=0;left=0;bottom=0;right=0;editable=1;overflow=hidden;" vertex="1" parent="typil63lQ0SKJqa8zRIT-21">
          <mxGeometry width="30" height="30" as="geometry" />
        </mxCell>
        <mxCell id="typil63lQ0SKJqa8zRIT-23" value="fecha_inicio" style="shape=partialRectangle;connectable=0;fillColor=none;top=0;left=0;bottom=0;right=0;align=left;spacingLeft=6;overflow=hidden;" vertex="1" parent="typil63lQ0SKJqa8zRIT-21">
          <mxGeometry x="30" width="150" height="30" as="geometry" />
        </mxCell>
        <mxCell id="typil63lQ0SKJqa8zRIT-28" value="Seg_apellido" style="shape=partialRectangle;connectable=0;fillColor=none;top=0;left=0;bottom=0;right=0;align=left;spacingLeft=6;overflow=hidden;" vertex="1" parent="1">
          <mxGeometry x="890" y="260" width="150" height="30" as="geometry" />
        </mxCell>
        <mxCell id="typil63lQ0SKJqa8zRIT-29" value="telefono" style="shape=partialRectangle;connectable=0;fillColor=none;top=0;left=0;bottom=0;right=0;align=left;spacingLeft=6;overflow=hidden;" vertex="1" parent="1">
          <mxGeometry x="890" y="290" width="150" height="30" as="geometry" />
        </mxCell>
        <mxCell id="typil63lQ0SKJqa8zRIT-30" value="correo" style="shape=partialRectangle;connectable=0;fillColor=none;top=0;left=0;bottom=0;right=0;align=left;spacingLeft=6;overflow=hidden;" vertex="1" parent="1">
          <mxGeometry x="890" y="320" width="150" height="30" as="geometry" />
        </mxCell>
        <mxCell id="typil63lQ0SKJqa8zRIT-31" value="dirección" style="shape=partialRectangle;connectable=0;fillColor=none;top=0;left=0;bottom=0;right=0;align=left;spacingLeft=6;overflow=hidden;" vertex="1" parent="1">
          <mxGeometry x="890" y="350" width="150" height="30" as="geometry" />
        </mxCell>
        <mxCell id="typil63lQ0SKJqa8zRIT-38" value="Odontologo" style="shape=table;startSize=30;container=1;collapsible=1;childLayout=tableLayout;fixedRows=1;rowLines=0;fontStyle=1;align=center;resizeLast=1;" vertex="1" parent="1">
          <mxGeometry x="1474" y="140" width="180" height="240" as="geometry" />
        </mxCell>
        <mxCell id="typil63lQ0SKJqa8zRIT-39" value="" style="shape=partialRectangle;collapsible=0;dropTarget=0;pointerEvents=0;fillColor=none;top=0;left=0;bottom=1;right=0;points=[[0,0.5],[1,0.5]];portConstraint=eastwest;" vertex="1" parent="typil63lQ0SKJqa8zRIT-38">
          <mxGeometry y="30" width="180" height="30" as="geometry" />
        </mxCell>
        <mxCell id="typil63lQ0SKJqa8zRIT-40" value="PK" style="shape=partialRectangle;connectable=0;fillColor=none;top=0;left=0;bottom=0;right=0;fontStyle=1;overflow=hidden;" vertex="1" parent="typil63lQ0SKJqa8zRIT-39">
          <mxGeometry width="30" height="30" as="geometry" />
        </mxCell>
        <mxCell id="typil63lQ0SKJqa8zRIT-41" value="Id_Odontologo" style="shape=partialRectangle;connectable=0;fillColor=none;top=0;left=0;bottom=0;right=0;align=left;spacingLeft=6;fontStyle=5;overflow=hidden;" vertex="1" parent="typil63lQ0SKJqa8zRIT-39">
          <mxGeometry x="30" width="150" height="30" as="geometry" />
        </mxCell>
        <mxCell id="typil63lQ0SKJqa8zRIT-42" value="" style="shape=partialRectangle;collapsible=0;dropTarget=0;pointerEvents=0;fillColor=none;top=0;left=0;bottom=0;right=0;points=[[0,0.5],[1,0.5]];portConstraint=eastwest;" vertex="1" parent="typil63lQ0SKJqa8zRIT-38">
          <mxGeometry y="60" width="180" height="30" as="geometry" />
        </mxCell>
        <mxCell id="typil63lQ0SKJqa8zRIT-43" value="" style="shape=partialRectangle;connectable=0;fillColor=none;top=0;left=0;bottom=0;right=0;editable=1;overflow=hidden;" vertex="1" parent="typil63lQ0SKJqa8zRIT-42">
          <mxGeometry width="30" height="30" as="geometry" />
        </mxCell>
        <mxCell id="typil63lQ0SKJqa8zRIT-44" value="descripción" style="shape=partialRectangle;connectable=0;fillColor=none;top=0;left=0;bottom=0;right=0;align=left;spacingLeft=6;overflow=hidden;" vertex="1" parent="typil63lQ0SKJqa8zRIT-42">
          <mxGeometry x="30" width="150" height="30" as="geometry" />
        </mxCell>
        <mxCell id="typil63lQ0SKJqa8zRIT-45" value="" style="shape=partialRectangle;collapsible=0;dropTarget=0;pointerEvents=0;fillColor=none;top=0;left=0;bottom=0;right=0;points=[[0,0.5],[1,0.5]];portConstraint=eastwest;" vertex="1" parent="typil63lQ0SKJqa8zRIT-38">
          <mxGeometry y="90" width="180" height="30" as="geometry" />
        </mxCell>
        <mxCell id="typil63lQ0SKJqa8zRIT-46" value="" style="shape=partialRectangle;connectable=0;fillColor=none;top=0;left=0;bottom=0;right=0;editable=1;overflow=hidden;" vertex="1" parent="typil63lQ0SKJqa8zRIT-45">
          <mxGeometry width="30" height="30" as="geometry" />
        </mxCell>
        <mxCell id="typil63lQ0SKJqa8zRIT-47" value="" style="shape=partialRectangle;connectable=0;fillColor=none;top=0;left=0;bottom=0;right=0;align=left;spacingLeft=6;overflow=hidden;" vertex="1" parent="typil63lQ0SKJqa8zRIT-45">
          <mxGeometry x="30" width="150" height="30" as="geometry" />
        </mxCell>
        <mxCell id="typil63lQ0SKJqa8zRIT-54" value="Pri_nombre" style="shape=partialRectangle;connectable=0;fillColor=none;top=0;left=0;bottom=0;right=0;align=left;spacingLeft=6;overflow=hidden;" vertex="1" parent="1">
          <mxGeometry x="1504" y="230" width="150" height="30" as="geometry" />
        </mxCell>
        <mxCell id="typil63lQ0SKJqa8zRIT-55" value="Seg_nombre" style="shape=partialRectangle;connectable=0;fillColor=none;top=0;left=0;bottom=0;right=0;align=left;spacingLeft=6;overflow=hidden;" vertex="1" parent="1">
          <mxGeometry x="1504" y="260" width="150" height="30" as="geometry" />
        </mxCell>
        <mxCell id="typil63lQ0SKJqa8zRIT-56" value="Pri_apellido" style="shape=partialRectangle;connectable=0;fillColor=none;top=0;left=0;bottom=0;right=0;align=left;spacingLeft=6;overflow=hidden;" vertex="1" parent="1">
          <mxGeometry x="1504" y="290" width="150" height="30" as="geometry" />
        </mxCell>
        <mxCell id="typil63lQ0SKJqa8zRIT-57" value="Seg_apellido" style="shape=partialRectangle;connectable=0;fillColor=none;top=0;left=0;bottom=0;right=0;align=left;spacingLeft=6;overflow=hidden;" vertex="1" parent="1">
          <mxGeometry x="1504" y="320" width="150" height="30" as="geometry" />
        </mxCell>
        <mxCell id="typil63lQ0SKJqa8zRIT-58" value="Consulta" style="shape=table;startSize=30;container=1;collapsible=1;childLayout=tableLayout;fixedRows=1;rowLines=0;fontStyle=1;align=center;resizeLast=1;" vertex="1" parent="1">
          <mxGeometry x="1150" y="-60" width="180" height="150" as="geometry">
            <mxRectangle x="600" y="100" width="100" height="30" as="alternateBounds" />
          </mxGeometry>
        </mxCell>
        <mxCell id="typil63lQ0SKJqa8zRIT-59" value="" style="shape=partialRectangle;collapsible=0;dropTarget=0;pointerEvents=0;fillColor=none;top=0;left=0;bottom=1;right=0;points=[[0,0.5],[1,0.5]];portConstraint=eastwest;" vertex="1" parent="typil63lQ0SKJqa8zRIT-58">
          <mxGeometry y="30" width="180" height="30" as="geometry" />
        </mxCell>
        <mxCell id="typil63lQ0SKJqa8zRIT-60" value="PK" style="shape=partialRectangle;connectable=0;fillColor=none;top=0;left=0;bottom=0;right=0;fontStyle=1;overflow=hidden;" vertex="1" parent="typil63lQ0SKJqa8zRIT-59">
          <mxGeometry width="30" height="30" as="geometry" />
        </mxCell>
        <mxCell id="typil63lQ0SKJqa8zRIT-61" value="Num_Consulta" style="shape=partialRectangle;connectable=0;fillColor=none;top=0;left=0;bottom=0;right=0;align=left;spacingLeft=6;fontStyle=5;overflow=hidden;" vertex="1" parent="typil63lQ0SKJqa8zRIT-59">
          <mxGeometry x="30" width="150" height="30" as="geometry" />
        </mxCell>
        <mxCell id="typil63lQ0SKJqa8zRIT-65" value="" style="shape=partialRectangle;collapsible=0;dropTarget=0;pointerEvents=0;fillColor=none;top=0;left=0;bottom=0;right=0;points=[[0,0.5],[1,0.5]];portConstraint=eastwest;" vertex="1" parent="typil63lQ0SKJqa8zRIT-58">
          <mxGeometry y="60" width="180" height="30" as="geometry" />
        </mxCell>
        <mxCell id="typil63lQ0SKJqa8zRIT-66" value="" style="shape=partialRectangle;connectable=0;fillColor=none;top=0;left=0;bottom=0;right=0;editable=1;overflow=hidden;" vertex="1" parent="typil63lQ0SKJqa8zRIT-65">
          <mxGeometry width="30" height="30" as="geometry" />
        </mxCell>
        <mxCell id="typil63lQ0SKJqa8zRIT-67" value="fecha" style="shape=partialRectangle;connectable=0;fillColor=none;top=0;left=0;bottom=0;right=0;align=left;spacingLeft=6;overflow=hidden;" vertex="1" parent="typil63lQ0SKJqa8zRIT-65">
          <mxGeometry x="30" width="150" height="30" as="geometry" />
        </mxCell>
        <mxCell id="typil63lQ0SKJqa8zRIT-74" value="Tratamiento" style="shape=table;startSize=30;container=1;collapsible=1;childLayout=tableLayout;fixedRows=1;rowLines=0;fontStyle=1;align=center;resizeLast=1;" vertex="1" parent="1">
          <mxGeometry x="1720" y="-120" width="180" height="180" as="geometry">
            <mxRectangle x="600" y="290" width="100" height="30" as="alternateBounds" />
          </mxGeometry>
        </mxCell>
        <mxCell id="typil63lQ0SKJqa8zRIT-75" value="" style="shape=partialRectangle;collapsible=0;dropTarget=0;pointerEvents=0;fillColor=none;top=0;left=0;bottom=1;right=0;points=[[0,0.5],[1,0.5]];portConstraint=eastwest;" vertex="1" parent="typil63lQ0SKJqa8zRIT-74">
          <mxGeometry y="30" width="180" height="30" as="geometry" />
        </mxCell>
        <mxCell id="typil63lQ0SKJqa8zRIT-76" value="PK" style="shape=partialRectangle;connectable=0;fillColor=none;top=0;left=0;bottom=0;right=0;fontStyle=1;overflow=hidden;" vertex="1" parent="typil63lQ0SKJqa8zRIT-75">
          <mxGeometry width="30" height="30" as="geometry" />
        </mxCell>
        <mxCell id="typil63lQ0SKJqa8zRIT-77" value="Id_Tratamiento" style="shape=partialRectangle;connectable=0;fillColor=none;top=0;left=0;bottom=0;right=0;align=left;spacingLeft=6;fontStyle=5;overflow=hidden;" vertex="1" parent="typil63lQ0SKJqa8zRIT-75">
          <mxGeometry x="30" width="150" height="30" as="geometry" />
        </mxCell>
        <mxCell id="typil63lQ0SKJqa8zRIT-78" value="" style="shape=partialRectangle;collapsible=0;dropTarget=0;pointerEvents=0;fillColor=none;top=0;left=0;bottom=0;right=0;points=[[0,0.5],[1,0.5]];portConstraint=eastwest;" vertex="1" parent="typil63lQ0SKJqa8zRIT-74">
          <mxGeometry y="60" width="180" height="30" as="geometry" />
        </mxCell>
        <mxCell id="typil63lQ0SKJqa8zRIT-79" value="" style="shape=partialRectangle;connectable=0;fillColor=none;top=0;left=0;bottom=0;right=0;editable=1;overflow=hidden;" vertex="1" parent="typil63lQ0SKJqa8zRIT-78">
          <mxGeometry width="30" height="30" as="geometry" />
        </mxCell>
        <mxCell id="typil63lQ0SKJqa8zRIT-80" value="nombre" style="shape=partialRectangle;connectable=0;fillColor=none;top=0;left=0;bottom=0;right=0;align=left;spacingLeft=6;overflow=hidden;" vertex="1" parent="typil63lQ0SKJqa8zRIT-78">
          <mxGeometry x="30" width="150" height="30" as="geometry" />
        </mxCell>
        <mxCell id="typil63lQ0SKJqa8zRIT-81" value="" style="shape=partialRectangle;collapsible=0;dropTarget=0;pointerEvents=0;fillColor=none;top=0;left=0;bottom=0;right=0;points=[[0,0.5],[1,0.5]];portConstraint=eastwest;" vertex="1" parent="typil63lQ0SKJqa8zRIT-74">
          <mxGeometry y="90" width="180" height="30" as="geometry" />
        </mxCell>
        <mxCell id="typil63lQ0SKJqa8zRIT-82" value="" style="shape=partialRectangle;connectable=0;fillColor=none;top=0;left=0;bottom=0;right=0;editable=1;overflow=hidden;" vertex="1" parent="typil63lQ0SKJqa8zRIT-81">
          <mxGeometry width="30" height="30" as="geometry" />
        </mxCell>
        <mxCell id="typil63lQ0SKJqa8zRIT-83" value="precio" style="shape=partialRectangle;connectable=0;fillColor=none;top=0;left=0;bottom=0;right=0;align=left;spacingLeft=6;overflow=hidden;" vertex="1" parent="typil63lQ0SKJqa8zRIT-81">
          <mxGeometry x="30" width="150" height="30" as="geometry" />
        </mxCell>
        <mxCell id="typil63lQ0SKJqa8zRIT-90" value="fecha_inicio" style="shape=partialRectangle;connectable=0;fillColor=none;top=0;left=0;bottom=0;right=0;align=left;spacingLeft=6;overflow=hidden;" vertex="1" parent="1">
          <mxGeometry x="1750" width="150" height="30" as="geometry" />
        </mxCell>
        <mxCell id="typil63lQ0SKJqa8zRIT-91" value="Factura" style="shape=table;startSize=30;container=1;collapsible=1;childLayout=tableLayout;fixedRows=1;rowLines=0;fontStyle=1;align=center;resizeLast=1;" vertex="1" parent="1">
          <mxGeometry x="1450" y="-280" width="180" height="270" as="geometry" />
        </mxCell>
        <mxCell id="typil63lQ0SKJqa8zRIT-92" value="" style="shape=partialRectangle;collapsible=0;dropTarget=0;pointerEvents=0;fillColor=none;top=0;left=0;bottom=1;right=0;points=[[0,0.5],[1,0.5]];portConstraint=eastwest;" vertex="1" parent="typil63lQ0SKJqa8zRIT-91">
          <mxGeometry y="30" width="180" height="30" as="geometry" />
        </mxCell>
        <mxCell id="typil63lQ0SKJqa8zRIT-93" value="PK" style="shape=partialRectangle;connectable=0;fillColor=none;top=0;left=0;bottom=0;right=0;fontStyle=1;overflow=hidden;" vertex="1" parent="typil63lQ0SKJqa8zRIT-92">
          <mxGeometry width="30" height="30" as="geometry" />
        </mxCell>
        <mxCell id="typil63lQ0SKJqa8zRIT-94" value="Num_Factura" style="shape=partialRectangle;connectable=0;fillColor=none;top=0;left=0;bottom=0;right=0;align=left;spacingLeft=6;fontStyle=5;overflow=hidden;" vertex="1" parent="typil63lQ0SKJqa8zRIT-92">
          <mxGeometry x="30" width="150" height="30" as="geometry" />
        </mxCell>
        <mxCell id="typil63lQ0SKJqa8zRIT-95" value="" style="shape=partialRectangle;collapsible=0;dropTarget=0;pointerEvents=0;fillColor=none;top=0;left=0;bottom=0;right=0;points=[[0,0.5],[1,0.5]];portConstraint=eastwest;" vertex="1" parent="typil63lQ0SKJqa8zRIT-91">
          <mxGeometry y="60" width="180" height="30" as="geometry" />
        </mxCell>
        <mxCell id="typil63lQ0SKJqa8zRIT-96" value="" style="shape=partialRectangle;connectable=0;fillColor=none;top=0;left=0;bottom=0;right=0;editable=1;overflow=hidden;" vertex="1" parent="typil63lQ0SKJqa8zRIT-95">
          <mxGeometry width="30" height="30" as="geometry" />
        </mxCell>
        <mxCell id="typil63lQ0SKJqa8zRIT-97" value="descripcion" style="shape=partialRectangle;connectable=0;fillColor=none;top=0;left=0;bottom=0;right=0;align=left;spacingLeft=6;overflow=hidden;" vertex="1" parent="typil63lQ0SKJqa8zRIT-95">
          <mxGeometry x="30" width="150" height="30" as="geometry" />
        </mxCell>
        <mxCell id="typil63lQ0SKJqa8zRIT-98" value="" style="shape=partialRectangle;collapsible=0;dropTarget=0;pointerEvents=0;fillColor=none;top=0;left=0;bottom=0;right=0;points=[[0,0.5],[1,0.5]];portConstraint=eastwest;" vertex="1" parent="typil63lQ0SKJqa8zRIT-91">
          <mxGeometry y="90" width="180" height="30" as="geometry" />
        </mxCell>
        <mxCell id="typil63lQ0SKJqa8zRIT-99" value="" style="shape=partialRectangle;connectable=0;fillColor=none;top=0;left=0;bottom=0;right=0;editable=1;overflow=hidden;" vertex="1" parent="typil63lQ0SKJqa8zRIT-98">
          <mxGeometry width="30" height="30" as="geometry" />
        </mxCell>
        <mxCell id="typil63lQ0SKJqa8zRIT-100" value="" style="shape=partialRectangle;connectable=0;fillColor=none;top=0;left=0;bottom=0;right=0;align=left;spacingLeft=6;overflow=hidden;" vertex="1" parent="typil63lQ0SKJqa8zRIT-98">
          <mxGeometry x="30" width="150" height="30" as="geometry" />
        </mxCell>
        <mxCell id="typil63lQ0SKJqa8zRIT-101" value="" style="shape=partialRectangle;collapsible=0;dropTarget=0;pointerEvents=0;fillColor=none;top=0;left=0;bottom=0;right=0;points=[[0,0.5],[1,0.5]];portConstraint=eastwest;" vertex="1" parent="typil63lQ0SKJqa8zRIT-91">
          <mxGeometry y="120" width="180" height="20" as="geometry" />
        </mxCell>
        <mxCell id="typil63lQ0SKJqa8zRIT-102" value="" style="shape=partialRectangle;connectable=0;fillColor=none;top=0;left=0;bottom=0;right=0;editable=1;overflow=hidden;" vertex="1" parent="typil63lQ0SKJqa8zRIT-101">
          <mxGeometry width="30" height="20" as="geometry" />
        </mxCell>
        <mxCell id="typil63lQ0SKJqa8zRIT-103" value="" style="shape=partialRectangle;connectable=0;fillColor=none;top=0;left=0;bottom=0;right=0;align=left;spacingLeft=6;overflow=hidden;" vertex="1" parent="typil63lQ0SKJqa8zRIT-101">
          <mxGeometry x="30" width="150" height="20" as="geometry" />
        </mxCell>
        <mxCell id="typil63lQ0SKJqa8zRIT-105" value="total_pagar" style="shape=partialRectangle;connectable=0;fillColor=none;top=0;left=0;bottom=0;right=0;align=left;spacingLeft=6;overflow=hidden;" vertex="1" parent="1">
          <mxGeometry x="1480" y="-190" width="150" height="30" as="geometry" />
        </mxCell>
        <mxCell id="typil63lQ0SKJqa8zRIT-106" value="direccion" style="shape=partialRectangle;connectable=0;fillColor=none;top=0;left=0;bottom=0;right=0;align=left;spacingLeft=6;overflow=hidden;" vertex="1" parent="1">
          <mxGeometry x="1480" y="-160" width="150" height="30" as="geometry" />
        </mxCell>
        <mxCell id="typil63lQ0SKJqa8zRIT-107" value="fecha_actual" style="shape=partialRectangle;connectable=0;fillColor=none;top=0;left=0;bottom=0;right=0;align=left;spacingLeft=6;overflow=hidden;" vertex="1" parent="1">
          <mxGeometry x="1480" y="-130" width="150" height="30" as="geometry" />
        </mxCell>
        <mxCell id="typil63lQ0SKJqa8zRIT-108" value="subtotal" style="shape=partialRectangle;connectable=0;fillColor=none;top=0;left=0;bottom=0;right=0;align=left;spacingLeft=6;overflow=hidden;" vertex="1" parent="1">
          <mxGeometry x="1480" y="-100" width="150" height="30" as="geometry" />
        </mxCell>
        <mxCell id="typil63lQ0SKJqa8zRIT-139" value="Receta_medica" style="shape=table;startSize=30;container=1;collapsible=1;childLayout=tableLayout;fixedRows=1;rowLines=0;fontStyle=1;align=center;resizeLast=1;" vertex="1" parent="1">
          <mxGeometry x="1750" y="365" width="180" height="180" as="geometry" />
        </mxCell>
        <mxCell id="typil63lQ0SKJqa8zRIT-140" value="" style="shape=partialRectangle;collapsible=0;dropTarget=0;pointerEvents=0;fillColor=none;top=0;left=0;bottom=1;right=0;points=[[0,0.5],[1,0.5]];portConstraint=eastwest;" vertex="1" parent="typil63lQ0SKJqa8zRIT-139">
          <mxGeometry y="30" width="180" height="30" as="geometry" />
        </mxCell>
        <mxCell id="typil63lQ0SKJqa8zRIT-141" value="PK" style="shape=partialRectangle;connectable=0;fillColor=none;top=0;left=0;bottom=0;right=0;fontStyle=1;overflow=hidden;" vertex="1" parent="typil63lQ0SKJqa8zRIT-140">
          <mxGeometry width="30" height="30" as="geometry" />
        </mxCell>
        <mxCell id="typil63lQ0SKJqa8zRIT-142" value="Id_Receta" style="shape=partialRectangle;connectable=0;fillColor=none;top=0;left=0;bottom=0;right=0;align=left;spacingLeft=6;fontStyle=5;overflow=hidden;" vertex="1" parent="typil63lQ0SKJqa8zRIT-140">
          <mxGeometry x="30" width="150" height="30" as="geometry" />
        </mxCell>
        <mxCell id="typil63lQ0SKJqa8zRIT-143" value="" style="shape=partialRectangle;collapsible=0;dropTarget=0;pointerEvents=0;fillColor=none;top=0;left=0;bottom=0;right=0;points=[[0,0.5],[1,0.5]];portConstraint=eastwest;" vertex="1" parent="typil63lQ0SKJqa8zRIT-139">
          <mxGeometry y="60" width="180" height="30" as="geometry" />
        </mxCell>
        <mxCell id="typil63lQ0SKJqa8zRIT-144" value="" style="shape=partialRectangle;connectable=0;fillColor=none;top=0;left=0;bottom=0;right=0;editable=1;overflow=hidden;" vertex="1" parent="typil63lQ0SKJqa8zRIT-143">
          <mxGeometry width="30" height="30" as="geometry" />
        </mxCell>
        <mxCell id="typil63lQ0SKJqa8zRIT-145" value="descripción" style="shape=partialRectangle;connectable=0;fillColor=none;top=0;left=0;bottom=0;right=0;align=left;spacingLeft=6;overflow=hidden;" vertex="1" parent="typil63lQ0SKJqa8zRIT-143">
          <mxGeometry x="30" width="150" height="30" as="geometry" />
        </mxCell>
        <mxCell id="typil63lQ0SKJqa8zRIT-146" value="" style="shape=partialRectangle;collapsible=0;dropTarget=0;pointerEvents=0;fillColor=none;top=0;left=0;bottom=0;right=0;points=[[0,0.5],[1,0.5]];portConstraint=eastwest;" vertex="1" parent="typil63lQ0SKJqa8zRIT-139">
          <mxGeometry y="90" width="180" height="30" as="geometry" />
        </mxCell>
        <mxCell id="typil63lQ0SKJqa8zRIT-147" value="" style="shape=partialRectangle;connectable=0;fillColor=none;top=0;left=0;bottom=0;right=0;editable=1;overflow=hidden;" vertex="1" parent="typil63lQ0SKJqa8zRIT-146">
          <mxGeometry width="30" height="30" as="geometry" />
        </mxCell>
        <mxCell id="typil63lQ0SKJqa8zRIT-148" value="fecha_actual" style="shape=partialRectangle;connectable=0;fillColor=none;top=0;left=0;bottom=0;right=0;align=left;spacingLeft=6;overflow=hidden;" vertex="1" parent="typil63lQ0SKJqa8zRIT-146">
          <mxGeometry x="30" width="150" height="30" as="geometry" />
        </mxCell>
        <mxCell id="typil63lQ0SKJqa8zRIT-155" value="Local" style="shape=table;startSize=30;container=1;collapsible=1;childLayout=tableLayout;fixedRows=1;rowLines=0;fontStyle=1;align=center;resizeLast=1;" vertex="1" parent="1">
          <mxGeometry x="1940" y="110" width="180" height="205" as="geometry" />
        </mxCell>
        <mxCell id="typil63lQ0SKJqa8zRIT-156" value="" style="shape=partialRectangle;collapsible=0;dropTarget=0;pointerEvents=0;fillColor=none;top=0;left=0;bottom=1;right=0;points=[[0,0.5],[1,0.5]];portConstraint=eastwest;" vertex="1" parent="typil63lQ0SKJqa8zRIT-155">
          <mxGeometry y="30" width="180" height="30" as="geometry" />
        </mxCell>
        <mxCell id="typil63lQ0SKJqa8zRIT-157" value="PK" style="shape=partialRectangle;connectable=0;fillColor=none;top=0;left=0;bottom=0;right=0;fontStyle=1;overflow=hidden;" vertex="1" parent="typil63lQ0SKJqa8zRIT-156">
          <mxGeometry width="30" height="30" as="geometry" />
        </mxCell>
        <mxCell id="typil63lQ0SKJqa8zRIT-158" value="Id_Local" style="shape=partialRectangle;connectable=0;fillColor=none;top=0;left=0;bottom=0;right=0;align=left;spacingLeft=6;fontStyle=5;overflow=hidden;" vertex="1" parent="typil63lQ0SKJqa8zRIT-156">
          <mxGeometry x="30" width="150" height="30" as="geometry" />
        </mxCell>
        <mxCell id="typil63lQ0SKJqa8zRIT-159" value="" style="shape=partialRectangle;collapsible=0;dropTarget=0;pointerEvents=0;fillColor=none;top=0;left=0;bottom=0;right=0;points=[[0,0.5],[1,0.5]];portConstraint=eastwest;" vertex="1" parent="typil63lQ0SKJqa8zRIT-155">
          <mxGeometry y="60" width="180" height="30" as="geometry" />
        </mxCell>
        <mxCell id="typil63lQ0SKJqa8zRIT-160" value="" style="shape=partialRectangle;connectable=0;fillColor=none;top=0;left=0;bottom=0;right=0;editable=1;overflow=hidden;" vertex="1" parent="typil63lQ0SKJqa8zRIT-159">
          <mxGeometry width="30" height="30" as="geometry" />
        </mxCell>
        <mxCell id="typil63lQ0SKJqa8zRIT-161" value="telefono" style="shape=partialRectangle;connectable=0;fillColor=none;top=0;left=0;bottom=0;right=0;align=left;spacingLeft=6;overflow=hidden;" vertex="1" parent="typil63lQ0SKJqa8zRIT-159">
          <mxGeometry x="30" width="150" height="30" as="geometry" />
        </mxCell>
        <mxCell id="typil63lQ0SKJqa8zRIT-162" value="" style="shape=partialRectangle;collapsible=0;dropTarget=0;pointerEvents=0;fillColor=none;top=0;left=0;bottom=0;right=0;points=[[0,0.5],[1,0.5]];portConstraint=eastwest;" vertex="1" parent="typil63lQ0SKJqa8zRIT-155">
          <mxGeometry y="90" width="180" height="30" as="geometry" />
        </mxCell>
        <mxCell id="typil63lQ0SKJqa8zRIT-163" value="" style="shape=partialRectangle;connectable=0;fillColor=none;top=0;left=0;bottom=0;right=0;editable=1;overflow=hidden;" vertex="1" parent="typil63lQ0SKJqa8zRIT-162">
          <mxGeometry width="30" height="30" as="geometry" />
        </mxCell>
        <mxCell id="typil63lQ0SKJqa8zRIT-164" value="direccion" style="shape=partialRectangle;connectable=0;fillColor=none;top=0;left=0;bottom=0;right=0;align=left;spacingLeft=6;overflow=hidden;" vertex="1" parent="typil63lQ0SKJqa8zRIT-162">
          <mxGeometry x="30" width="150" height="30" as="geometry" />
        </mxCell>
        <mxCell id="typil63lQ0SKJqa8zRIT-165" value="" style="shape=partialRectangle;collapsible=0;dropTarget=0;pointerEvents=0;fillColor=none;top=0;left=0;bottom=0;right=0;points=[[0,0.5],[1,0.5]];portConstraint=eastwest;" vertex="1" parent="typil63lQ0SKJqa8zRIT-155">
          <mxGeometry y="120" width="180" height="30" as="geometry" />
        </mxCell>
        <mxCell id="typil63lQ0SKJqa8zRIT-166" value="" style="shape=partialRectangle;connectable=0;fillColor=none;top=0;left=0;bottom=0;right=0;editable=1;overflow=hidden;" vertex="1" parent="typil63lQ0SKJqa8zRIT-165">
          <mxGeometry width="30" height="30" as="geometry" />
        </mxCell>
        <mxCell id="typil63lQ0SKJqa8zRIT-167" value="avenida" style="shape=partialRectangle;connectable=0;fillColor=none;top=0;left=0;bottom=0;right=0;align=left;spacingLeft=6;overflow=hidden;" vertex="1" parent="typil63lQ0SKJqa8zRIT-165">
          <mxGeometry x="30" width="150" height="30" as="geometry" />
        </mxCell>
        <mxCell id="typil63lQ0SKJqa8zRIT-184" value="calle" style="shape=partialRectangle;connectable=0;fillColor=none;top=0;left=0;bottom=0;right=0;align=left;spacingLeft=6;overflow=hidden;" vertex="1" parent="1">
          <mxGeometry x="1970" y="255" width="150" height="30" as="geometry" />
        </mxCell>
        <mxCell id="typil63lQ0SKJqa8zRIT-185" value="ciudad" style="shape=partialRectangle;connectable=0;fillColor=none;top=0;left=0;bottom=0;right=0;align=left;spacingLeft=6;overflow=hidden;" vertex="1" parent="1">
          <mxGeometry x="1970" y="285" width="150" height="30" as="geometry" />
        </mxCell>
        <mxCell id="typil63lQ0SKJqa8zRIT-186" value="Empleado" style="shape=table;startSize=30;container=1;collapsible=1;childLayout=tableLayout;fixedRows=1;rowLines=0;fontStyle=1;align=center;resizeLast=1;" vertex="1" parent="1">
          <mxGeometry x="2210" y="-190" width="180" height="300" as="geometry" />
        </mxCell>
        <mxCell id="typil63lQ0SKJqa8zRIT-187" value="" style="shape=partialRectangle;collapsible=0;dropTarget=0;pointerEvents=0;fillColor=none;top=0;left=0;bottom=1;right=0;points=[[0,0.5],[1,0.5]];portConstraint=eastwest;" vertex="1" parent="typil63lQ0SKJqa8zRIT-186">
          <mxGeometry y="30" width="180" height="30" as="geometry" />
        </mxCell>
        <mxCell id="typil63lQ0SKJqa8zRIT-188" value="PK" style="shape=partialRectangle;connectable=0;fillColor=none;top=0;left=0;bottom=0;right=0;fontStyle=1;overflow=hidden;" vertex="1" parent="typil63lQ0SKJqa8zRIT-187">
          <mxGeometry width="30" height="30" as="geometry" />
        </mxCell>
        <mxCell id="typil63lQ0SKJqa8zRIT-189" value="dni" style="shape=partialRectangle;connectable=0;fillColor=none;top=0;left=0;bottom=0;right=0;align=left;spacingLeft=6;fontStyle=5;overflow=hidden;" vertex="1" parent="typil63lQ0SKJqa8zRIT-187">
          <mxGeometry x="30" width="150" height="30" as="geometry" />
        </mxCell>
        <mxCell id="typil63lQ0SKJqa8zRIT-190" value="" style="shape=partialRectangle;collapsible=0;dropTarget=0;pointerEvents=0;fillColor=none;top=0;left=0;bottom=0;right=0;points=[[0,0.5],[1,0.5]];portConstraint=eastwest;" vertex="1" parent="typil63lQ0SKJqa8zRIT-186">
          <mxGeometry y="60" width="180" height="30" as="geometry" />
        </mxCell>
        <mxCell id="typil63lQ0SKJqa8zRIT-191" value="" style="shape=partialRectangle;connectable=0;fillColor=none;top=0;left=0;bottom=0;right=0;editable=1;overflow=hidden;" vertex="1" parent="typil63lQ0SKJqa8zRIT-190">
          <mxGeometry width="30" height="30" as="geometry" />
        </mxCell>
        <mxCell id="typil63lQ0SKJqa8zRIT-192" value="Pri_nombre" style="shape=partialRectangle;connectable=0;fillColor=none;top=0;left=0;bottom=0;right=0;align=left;spacingLeft=6;overflow=hidden;" vertex="1" parent="typil63lQ0SKJqa8zRIT-190">
          <mxGeometry x="30" width="150" height="30" as="geometry" />
        </mxCell>
        <mxCell id="typil63lQ0SKJqa8zRIT-193" value="" style="shape=partialRectangle;collapsible=0;dropTarget=0;pointerEvents=0;fillColor=none;top=0;left=0;bottom=0;right=0;points=[[0,0.5],[1,0.5]];portConstraint=eastwest;" vertex="1" parent="typil63lQ0SKJqa8zRIT-186">
          <mxGeometry y="90" width="180" height="30" as="geometry" />
        </mxCell>
        <mxCell id="typil63lQ0SKJqa8zRIT-194" value="" style="shape=partialRectangle;connectable=0;fillColor=none;top=0;left=0;bottom=0;right=0;editable=1;overflow=hidden;" vertex="1" parent="typil63lQ0SKJqa8zRIT-193">
          <mxGeometry width="30" height="30" as="geometry" />
        </mxCell>
        <mxCell id="typil63lQ0SKJqa8zRIT-195" value="Seg_nombre" style="shape=partialRectangle;connectable=0;fillColor=none;top=0;left=0;bottom=0;right=0;align=left;spacingLeft=6;overflow=hidden;" vertex="1" parent="typil63lQ0SKJqa8zRIT-193">
          <mxGeometry x="30" width="150" height="30" as="geometry" />
        </mxCell>
        <mxCell id="typil63lQ0SKJqa8zRIT-196" value="" style="shape=partialRectangle;collapsible=0;dropTarget=0;pointerEvents=0;fillColor=none;top=0;left=0;bottom=0;right=0;points=[[0,0.5],[1,0.5]];portConstraint=eastwest;" vertex="1" parent="typil63lQ0SKJqa8zRIT-186">
          <mxGeometry y="120" width="180" height="30" as="geometry" />
        </mxCell>
        <mxCell id="typil63lQ0SKJqa8zRIT-197" value="" style="shape=partialRectangle;connectable=0;fillColor=none;top=0;left=0;bottom=0;right=0;editable=1;overflow=hidden;" vertex="1" parent="typil63lQ0SKJqa8zRIT-196">
          <mxGeometry width="30" height="30" as="geometry" />
        </mxCell>
        <mxCell id="typil63lQ0SKJqa8zRIT-198" value="Pri_apellido" style="shape=partialRectangle;connectable=0;fillColor=none;top=0;left=0;bottom=0;right=0;align=left;spacingLeft=6;overflow=hidden;" vertex="1" parent="typil63lQ0SKJqa8zRIT-196">
          <mxGeometry x="30" width="150" height="30" as="geometry" />
        </mxCell>
        <mxCell id="typil63lQ0SKJqa8zRIT-199" value="Seg_apellido" style="shape=partialRectangle;connectable=0;fillColor=none;top=0;left=0;bottom=0;right=0;align=left;spacingLeft=6;overflow=hidden;" vertex="1" parent="1">
          <mxGeometry x="2240" y="-40" width="150" height="30" as="geometry" />
        </mxCell>
        <mxCell id="typil63lQ0SKJqa8zRIT-200" value="telefono" style="shape=partialRectangle;connectable=0;fillColor=none;top=0;left=0;bottom=0;right=0;align=left;spacingLeft=6;overflow=hidden;" vertex="1" parent="1">
          <mxGeometry x="2240" y="-10" width="150" height="30" as="geometry" />
        </mxCell>
        <mxCell id="typil63lQ0SKJqa8zRIT-201" value="cargo" style="shape=partialRectangle;connectable=0;fillColor=none;top=0;left=0;bottom=0;right=0;align=left;spacingLeft=6;overflow=hidden;" vertex="1" parent="1">
          <mxGeometry x="2240" y="20" width="150" height="30" as="geometry" />
        </mxCell>
        <mxCell id="typil63lQ0SKJqa8zRIT-202" value="sexo" style="shape=partialRectangle;connectable=0;fillColor=none;top=0;left=0;bottom=0;right=0;align=left;spacingLeft=6;overflow=hidden;" vertex="1" parent="1">
          <mxGeometry x="2240" y="50" width="150" height="30" as="geometry" />
        </mxCell>
        <mxCell id="typil63lQ0SKJqa8zRIT-206" value="FK_Id_Paciente" style="text;strokeColor=none;fillColor=none;spacingLeft=4;spacingRight=4;overflow=hidden;rotatable=0;points=[[0,0.5],[1,0.5]];portConstraint=eastwest;fontSize=12;fontStyle=1" vertex="1" parent="1">
          <mxGeometry x="1220" y="305" width="150" height="30" as="geometry" />
        </mxCell>
        <mxCell id="typil63lQ0SKJqa8zRIT-207" value="FK_Id_Odontologo" style="text;strokeColor=none;fillColor=none;spacingLeft=4;spacingRight=4;overflow=hidden;rotatable=0;points=[[0,0.5],[1,0.5]];portConstraint=eastwest;fontSize=12;fontStyle=1" vertex="1" parent="1">
          <mxGeometry x="1220" y="335" width="150" height="30" as="geometry" />
        </mxCell>
        <mxCell id="typil63lQ0SKJqa8zRIT-208" value="FK" style="text;strokeColor=none;fillColor=none;spacingLeft=4;spacingRight=4;overflow=hidden;rotatable=0;points=[[0,0.5],[1,0.5]];portConstraint=eastwest;fontSize=12;fontStyle=1" vertex="1" parent="1">
          <mxGeometry x="1190" y="335" width="30" height="30" as="geometry" />
        </mxCell>
        <mxCell id="typil63lQ0SKJqa8zRIT-211" value="FK" style="text;strokeColor=none;fillColor=none;spacingLeft=4;spacingRight=4;overflow=hidden;rotatable=0;points=[[0,0.5],[1,0.5]];portConstraint=eastwest;fontSize=12;fontStyle=1" vertex="1" parent="1">
          <mxGeometry x="1190" y="305" width="30" height="30" as="geometry" />
        </mxCell>
        <mxCell id="typil63lQ0SKJqa8zRIT-212" value="FK_Id_Paciente" style="text;strokeColor=none;fillColor=none;spacingLeft=4;spacingRight=4;overflow=hidden;rotatable=0;points=[[0,0.5],[1,0.5]];portConstraint=eastwest;fontSize=12;fontStyle=1" vertex="1" parent="1">
          <mxGeometry x="1180" y="30" width="150" height="30" as="geometry" />
        </mxCell>
        <mxCell id="typil63lQ0SKJqa8zRIT-213" value="FK_Id_Odontologo" style="text;strokeColor=none;fillColor=none;spacingLeft=4;spacingRight=4;overflow=hidden;rotatable=0;points=[[0,0.5],[1,0.5]];portConstraint=eastwest;fontSize=12;fontStyle=1" vertex="1" parent="1">
          <mxGeometry x="1180" y="60" width="150" height="30" as="geometry" />
        </mxCell>
        <mxCell id="typil63lQ0SKJqa8zRIT-214" value="FK" style="text;strokeColor=none;fillColor=none;spacingLeft=4;spacingRight=4;overflow=hidden;rotatable=0;points=[[0,0.5],[1,0.5]];portConstraint=eastwest;fontSize=12;fontStyle=1" vertex="1" parent="1">
          <mxGeometry x="1150" y="60" width="30" height="30" as="geometry" />
        </mxCell>
        <mxCell id="typil63lQ0SKJqa8zRIT-215" value="FK" style="text;strokeColor=none;fillColor=none;spacingLeft=4;spacingRight=4;overflow=hidden;rotatable=0;points=[[0,0.5],[1,0.5]];portConstraint=eastwest;fontSize=12;fontStyle=1" vertex="1" parent="1">
          <mxGeometry x="1150" y="30" width="30" height="30" as="geometry" />
        </mxCell>
        <mxCell id="typil63lQ0SKJqa8zRIT-217" value="FK_Id_Paciente" style="text;strokeColor=none;fillColor=none;spacingLeft=4;spacingRight=4;overflow=hidden;rotatable=0;points=[[0,0.5],[1,0.5]];portConstraint=eastwest;fontSize=12;fontStyle=1" vertex="1" parent="1">
          <mxGeometry x="1780" y="485" width="150" height="30" as="geometry" />
        </mxCell>
        <mxCell id="typil63lQ0SKJqa8zRIT-218" value="FK_Id_Odontologo" style="text;strokeColor=none;fillColor=none;spacingLeft=4;spacingRight=4;overflow=hidden;rotatable=0;points=[[0,0.5],[1,0.5]];portConstraint=eastwest;fontSize=12;fontStyle=1" vertex="1" parent="1">
          <mxGeometry x="1780" y="515" width="150" height="30" as="geometry" />
        </mxCell>
        <mxCell id="typil63lQ0SKJqa8zRIT-219" value="FK" style="text;strokeColor=none;fillColor=none;spacingLeft=4;spacingRight=4;overflow=hidden;rotatable=0;points=[[0,0.5],[1,0.5]];portConstraint=eastwest;fontSize=12;fontStyle=1" vertex="1" parent="1">
          <mxGeometry x="1750" y="515" width="30" height="30" as="geometry" />
        </mxCell>
        <mxCell id="typil63lQ0SKJqa8zRIT-220" value="FK" style="text;strokeColor=none;fillColor=none;spacingLeft=4;spacingRight=4;overflow=hidden;rotatable=0;points=[[0,0.5],[1,0.5]];portConstraint=eastwest;fontSize=12;fontStyle=1" vertex="1" parent="1">
          <mxGeometry x="1750" y="485" width="30" height="30" as="geometry" />
        </mxCell>
        <mxCell id="typil63lQ0SKJqa8zRIT-221" value="FK_Id_Odontologo" style="text;strokeColor=none;fillColor=none;spacingLeft=4;spacingRight=4;overflow=hidden;rotatable=0;points=[[0,0.5],[1,0.5]];portConstraint=eastwest;fontSize=12;fontStyle=1" vertex="1" parent="1">
          <mxGeometry x="1750" y="30" width="150" height="30" as="geometry" />
        </mxCell>
        <mxCell id="typil63lQ0SKJqa8zRIT-222" value="FK" style="text;strokeColor=none;fillColor=none;spacingLeft=4;spacingRight=4;overflow=hidden;rotatable=0;points=[[0,0.5],[1,0.5]];portConstraint=eastwest;fontSize=12;fontStyle=1" vertex="1" parent="1">
          <mxGeometry x="1720" y="30" width="30" height="30" as="geometry" />
        </mxCell>
        <mxCell id="typil63lQ0SKJqa8zRIT-224" value="FK_Id_Paciente" style="text;strokeColor=none;fillColor=none;spacingLeft=4;spacingRight=4;overflow=hidden;rotatable=0;points=[[0,0.5],[1,0.5]];portConstraint=eastwest;fontSize=12;fontStyle=1" vertex="1" parent="1">
          <mxGeometry x="1480" y="-70" width="150" height="30" as="geometry" />
        </mxCell>
        <mxCell id="typil63lQ0SKJqa8zRIT-225" value="FK" style="text;strokeColor=none;fillColor=none;spacingLeft=4;spacingRight=4;overflow=hidden;rotatable=0;points=[[0,0.5],[1,0.5]];portConstraint=eastwest;fontSize=12;fontStyle=1" vertex="1" parent="1">
          <mxGeometry x="1450" y="-70" width="30" height="30" as="geometry" />
        </mxCell>
        <mxCell id="typil63lQ0SKJqa8zRIT-226" value="FK_Id_Local" style="text;strokeColor=none;fillColor=none;spacingLeft=4;spacingRight=4;overflow=hidden;rotatable=0;points=[[0,0.5],[1,0.5]];portConstraint=eastwest;fontSize=12;fontStyle=1" vertex="1" parent="1">
          <mxGeometry x="2240" y="80" width="150" height="30" as="geometry" />
        </mxCell>
        <mxCell id="typil63lQ0SKJqa8zRIT-227" value="FK" style="text;strokeColor=none;fillColor=none;spacingLeft=4;spacingRight=4;overflow=hidden;rotatable=0;points=[[0,0.5],[1,0.5]];portConstraint=eastwest;fontSize=12;fontStyle=1" vertex="1" parent="1">
          <mxGeometry x="2210" y="80" width="30" height="30" as="geometry" />
        </mxCell>
        <mxCell id="typil63lQ0SKJqa8zRIT-241" value="Consultorio" style="shape=table;startSize=30;container=1;collapsible=1;childLayout=tableLayout;fixedRows=1;rowLines=0;fontStyle=1;align=center;resizeLast=1;" vertex="1" parent="1">
          <mxGeometry x="2240" y="230" width="190" height="150" as="geometry" />
        </mxCell>
        <mxCell id="typil63lQ0SKJqa8zRIT-242" value="" style="shape=partialRectangle;collapsible=0;dropTarget=0;pointerEvents=0;fillColor=none;top=0;left=0;bottom=0;right=0;points=[[0,0.5],[1,0.5]];portConstraint=eastwest;" vertex="1" parent="typil63lQ0SKJqa8zRIT-241">
          <mxGeometry y="30" width="190" height="30" as="geometry" />
        </mxCell>
        <mxCell id="typil63lQ0SKJqa8zRIT-243" value="PK" style="shape=partialRectangle;connectable=0;fillColor=none;top=0;left=0;bottom=0;right=0;fontStyle=1;overflow=hidden;" vertex="1" parent="typil63lQ0SKJqa8zRIT-242">
          <mxGeometry width="40" height="30" as="geometry" />
        </mxCell>
        <mxCell id="typil63lQ0SKJqa8zRIT-244" value="Num_Consultorio" style="shape=partialRectangle;connectable=0;fillColor=none;top=0;left=0;bottom=0;right=0;align=left;spacingLeft=6;fontStyle=5;overflow=hidden;" vertex="1" parent="typil63lQ0SKJqa8zRIT-242">
          <mxGeometry x="40" width="150" height="30" as="geometry" />
        </mxCell>
        <mxCell id="typil63lQ0SKJqa8zRIT-245" value="" style="shape=partialRectangle;collapsible=0;dropTarget=0;pointerEvents=0;fillColor=none;top=0;left=0;bottom=1;right=0;points=[[0,0.5],[1,0.5]];portConstraint=eastwest;" vertex="1" parent="typil63lQ0SKJqa8zRIT-241">
          <mxGeometry y="60" width="190" height="30" as="geometry" />
        </mxCell>
        <mxCell id="typil63lQ0SKJqa8zRIT-246" value="PK,FK" style="shape=partialRectangle;connectable=0;fillColor=none;top=0;left=0;bottom=0;right=0;fontStyle=1;overflow=hidden;" vertex="1" parent="typil63lQ0SKJqa8zRIT-245">
          <mxGeometry width="40" height="30" as="geometry" />
        </mxCell>
        <mxCell id="typil63lQ0SKJqa8zRIT-247" value="FK_Id_Local" style="shape=partialRectangle;connectable=0;fillColor=none;top=0;left=0;bottom=0;right=0;align=left;spacingLeft=6;fontStyle=5;overflow=hidden;" vertex="1" parent="typil63lQ0SKJqa8zRIT-245">
          <mxGeometry x="40" width="150" height="30" as="geometry" />
        </mxCell>
        <mxCell id="typil63lQ0SKJqa8zRIT-248" value="" style="shape=partialRectangle;collapsible=0;dropTarget=0;pointerEvents=0;fillColor=none;top=0;left=0;bottom=0;right=0;points=[[0,0.5],[1,0.5]];portConstraint=eastwest;" vertex="1" parent="typil63lQ0SKJqa8zRIT-241">
          <mxGeometry y="90" width="190" height="30" as="geometry" />
        </mxCell>
        <mxCell id="typil63lQ0SKJqa8zRIT-249" value="" style="shape=partialRectangle;connectable=0;fillColor=none;top=0;left=0;bottom=0;right=0;editable=1;overflow=hidden;" vertex="1" parent="typil63lQ0SKJqa8zRIT-248">
          <mxGeometry width="40" height="30" as="geometry" />
        </mxCell>
        <mxCell id="typil63lQ0SKJqa8zRIT-250" value="nombre_consultorio" style="shape=partialRectangle;connectable=0;fillColor=none;top=0;left=0;bottom=0;right=0;align=left;spacingLeft=6;overflow=hidden;" vertex="1" parent="typil63lQ0SKJqa8zRIT-248">
          <mxGeometry x="40" width="150" height="30" as="geometry" />
        </mxCell>
        <mxCell id="typil63lQ0SKJqa8zRIT-251" value="" style="shape=partialRectangle;collapsible=0;dropTarget=0;pointerEvents=0;fillColor=none;top=0;left=0;bottom=0;right=0;points=[[0,0.5],[1,0.5]];portConstraint=eastwest;" vertex="1" parent="typil63lQ0SKJqa8zRIT-241">
          <mxGeometry y="120" width="190" height="30" as="geometry" />
        </mxCell>
        <mxCell id="typil63lQ0SKJqa8zRIT-252" value="" style="shape=partialRectangle;connectable=0;fillColor=none;top=0;left=0;bottom=0;right=0;editable=1;overflow=hidden;" vertex="1" parent="typil63lQ0SKJqa8zRIT-251">
          <mxGeometry width="40" height="30" as="geometry" />
        </mxCell>
        <mxCell id="typil63lQ0SKJqa8zRIT-253" value="ubicacion" style="shape=partialRectangle;connectable=0;fillColor=none;top=0;left=0;bottom=0;right=0;align=left;spacingLeft=6;overflow=hidden;" vertex="1" parent="typil63lQ0SKJqa8zRIT-251">
          <mxGeometry x="40" width="150" height="30" as="geometry" />
        </mxCell>
        <mxCell id="typil63lQ0SKJqa8zRIT-254" value="" style="edgeStyle=entityRelationEdgeStyle;fontSize=12;html=1;endArrow=ERmandOne;startArrow=ERmandOne;entryX=0;entryY=0.5;entryDx=0;entryDy=0;exitX=1;exitY=0.5;exitDx=0;exitDy=0;" edge="1" parent="1" source="typil63lQ0SKJqa8zRIT-2" target="typil63lQ0SKJqa8zRIT-211">
          <mxGeometry width="100" height="100" relative="1" as="geometry">
            <mxPoint x="1130" y="520" as="sourcePoint" />
            <mxPoint x="1230" y="420" as="targetPoint" />
          </mxGeometry>
        </mxCell>
        <mxCell id="typil63lQ0SKJqa8zRIT-260" value="" style="edgeStyle=entityRelationEdgeStyle;fontSize=12;html=1;endArrow=ERzeroToMany;startArrow=ERmandOne;entryX=1;entryY=0.5;entryDx=0;entryDy=0;exitX=0;exitY=0.5;exitDx=0;exitDy=0;" edge="1" parent="1" source="typil63lQ0SKJqa8zRIT-39" target="typil63lQ0SKJqa8zRIT-207">
          <mxGeometry width="100" height="100" relative="1" as="geometry">
            <mxPoint x="1420" y="290" as="sourcePoint" />
            <mxPoint x="1750" y="40" as="targetPoint" />
          </mxGeometry>
        </mxCell>
        <mxCell id="typil63lQ0SKJqa8zRIT-261" value="" style="edgeStyle=entityRelationEdgeStyle;fontSize=12;html=1;endArrow=ERzeroToMany;startArrow=ERmandOne;entryX=1;entryY=0.5;entryDx=0;entryDy=0;exitX=0;exitY=0.5;exitDx=0;exitDy=0;" edge="1" parent="1" source="typil63lQ0SKJqa8zRIT-39" target="typil63lQ0SKJqa8zRIT-213">
          <mxGeometry width="100" height="100" relative="1" as="geometry">
            <mxPoint x="1400" y="150" as="sourcePoint" />
            <mxPoint x="1500" y="50" as="targetPoint" />
          </mxGeometry>
        </mxCell>
        <mxCell id="typil63lQ0SKJqa8zRIT-264" value="" style="edgeStyle=entityRelationEdgeStyle;fontSize=12;html=1;endArrow=ERoneToMany;startArrow=ERmandOne;exitX=1;exitY=0.5;exitDx=0;exitDy=0;entryX=0;entryY=0.5;entryDx=0;entryDy=0;" edge="1" parent="1" source="typil63lQ0SKJqa8zRIT-39" target="typil63lQ0SKJqa8zRIT-222">
          <mxGeometry width="100" height="100" relative="1" as="geometry">
            <mxPoint x="1680" y="220" as="sourcePoint" />
            <mxPoint x="1780" y="120" as="targetPoint" />
          </mxGeometry>
        </mxCell>
        <mxCell id="typil63lQ0SKJqa8zRIT-265" value="FK_Id_Tratamiento" style="text;strokeColor=none;fillColor=none;spacingLeft=4;spacingRight=4;overflow=hidden;rotatable=0;points=[[0,0.5],[1,0.5]];portConstraint=eastwest;fontSize=12;fontStyle=1" vertex="1" parent="1">
          <mxGeometry x="1480" y="-40" width="150" height="30" as="geometry" />
        </mxCell>
        <mxCell id="typil63lQ0SKJqa8zRIT-266" value="FK" style="text;strokeColor=none;fillColor=none;spacingLeft=4;spacingRight=4;overflow=hidden;rotatable=0;points=[[0,0.5],[1,0.5]];portConstraint=eastwest;fontSize=12;fontStyle=1" vertex="1" parent="1">
          <mxGeometry x="1450" y="-40" width="30" height="30" as="geometry" />
        </mxCell>
        <mxCell id="typil63lQ0SKJqa8zRIT-267" value="" style="edgeStyle=entityRelationEdgeStyle;fontSize=12;html=1;endArrow=ERmandOne;startArrow=ERmandOne;exitX=0;exitY=0.5;exitDx=0;exitDy=0;entryX=1;entryY=0.5;entryDx=0;entryDy=0;" edge="1" parent="1" source="typil63lQ0SKJqa8zRIT-75" target="typil63lQ0SKJqa8zRIT-265">
          <mxGeometry width="100" height="100" relative="1" as="geometry">
            <mxPoint x="1770" y="-160" as="sourcePoint" />
            <mxPoint x="1870" y="-260" as="targetPoint" />
          </mxGeometry>
        </mxCell>
        <mxCell id="typil63lQ0SKJqa8zRIT-268" value="" style="edgeStyle=entityRelationEdgeStyle;fontSize=12;html=1;endArrow=ERmandOne;startArrow=ERmandOne;entryX=0;entryY=0.5;entryDx=0;entryDy=0;exitX=1;exitY=0.5;exitDx=0;exitDy=0;" edge="1" parent="1" source="typil63lQ0SKJqa8zRIT-39" target="typil63lQ0SKJqa8zRIT-219">
          <mxGeometry width="100" height="100" relative="1" as="geometry">
            <mxPoint x="1750" y="220" as="sourcePoint" />
            <mxPoint x="1730" y="515" as="targetPoint" />
          </mxGeometry>
        </mxCell>
        <mxCell id="typil63lQ0SKJqa8zRIT-269" value="FK_Id_Local" style="text;strokeColor=none;fillColor=none;spacingLeft=4;spacingRight=4;overflow=hidden;rotatable=0;points=[[0,0.5],[1,0.5]];portConstraint=eastwest;fontSize=12;fontStyle=1" vertex="1" parent="1">
          <mxGeometry x="1504" y="350" width="150" height="30" as="geometry" />
        </mxCell>
        <mxCell id="typil63lQ0SKJqa8zRIT-270" value="FK" style="text;strokeColor=none;fillColor=none;spacingLeft=4;spacingRight=4;overflow=hidden;rotatable=0;points=[[0,0.5],[1,0.5]];portConstraint=eastwest;fontSize=12;fontStyle=1" vertex="1" parent="1">
          <mxGeometry x="1474" y="350" width="30" height="30" as="geometry" />
        </mxCell>
        <mxCell id="typil63lQ0SKJqa8zRIT-271" value="" style="edgeStyle=entityRelationEdgeStyle;fontSize=12;html=1;endArrow=ERmandOne;startArrow=ERmandOne;exitX=1;exitY=0.5;exitDx=0;exitDy=0;entryX=0;entryY=0.5;entryDx=0;entryDy=0;" edge="1" parent="1" source="typil63lQ0SKJqa8zRIT-269" target="typil63lQ0SKJqa8zRIT-156">
          <mxGeometry width="100" height="100" relative="1" as="geometry">
            <mxPoint x="1760" y="280" as="sourcePoint" />
            <mxPoint x="1860" y="180" as="targetPoint" />
          </mxGeometry>
        </mxCell>
        <mxCell id="typil63lQ0SKJqa8zRIT-272" value="" style="edgeStyle=entityRelationEdgeStyle;fontSize=12;html=1;endArrow=ERoneToMany;startArrow=ERmandOne;exitX=1;exitY=0.5;exitDx=0;exitDy=0;entryX=0;entryY=0.5;entryDx=0;entryDy=0;" edge="1" parent="1" source="typil63lQ0SKJqa8zRIT-156" target="typil63lQ0SKJqa8zRIT-227">
          <mxGeometry width="100" height="100" relative="1" as="geometry">
            <mxPoint x="2120" y="20" as="sourcePoint" />
            <mxPoint x="2220" y="-80" as="targetPoint" />
          </mxGeometry>
        </mxCell>
        <mxCell id="typil63lQ0SKJqa8zRIT-274" value="" style="edgeStyle=entityRelationEdgeStyle;fontSize=12;html=1;endArrow=ERzeroToMany;startArrow=ERmandOne;exitX=1;exitY=0.5;exitDx=0;exitDy=0;entryX=0;entryY=0.5;entryDx=0;entryDy=0;" edge="1" parent="1" source="typil63lQ0SKJqa8zRIT-156" target="typil63lQ0SKJqa8zRIT-245">
          <mxGeometry width="100" height="100" relative="1" as="geometry">
            <mxPoint x="2070" y="510" as="sourcePoint" />
            <mxPoint x="2170" y="410" as="targetPoint" />
          </mxGeometry>
        </mxCell>
      </root>
    </mxGraphModel>
  </diagram>
</mxfile>
